<svg fill="none" height="20" viewBox="0 0 20 20" width="20" xmlns="http://www.w3.org/2000/svg"><g fill="#4a5568"><path d="m10 12c1.1046 0 2-.8954 2-2 0-1.10457-.8954-2-2-2-1.10456 0-1.99999.89543-1.99999 2 0 1.1046.89543 2 1.99999 2z"/><path clip-rule="evenodd" d="m.457764 10c1.274256-4.05709 5.064556-7 9.542206-7 4.47763 0 8.26793 2.94288 9.54223 6.99996-1.2743 4.05714-5.0646 7.00004-9.54225 7.00004-4.47763 0-8.26791-2.9429-9.542186-7zm13.542236 0c0 2.2091-1.7909 4-4 4-2.20913 0-3.99999-1.7909-3.99999-4 0-2.20914 1.79086-4 3.99999-4 2.2091 0 4 1.79086 4 4z" fill-rule="evenodd"/></g></svg>