<svg height="24" width="24" xmlns="http://www.w3.org/2000/svg"><path d="m8.0631464 5.26411-1.1412622-1.14407c-1.9132474 1.456086-3.1787608 3.720459-3.2981314 6.279398h1.6005615c.1193706-2.118493 1.2082845-3.975915 2.8388321-5.135328zm10.7125386 5.135328h1.600562c-.119371-2.558939-1.384884-4.823312-3.304416-6.279398l-1.144038 1.14407c1.639608 1.159413 2.728522 3.016835 2.847892 5.135328zm-1.575456.401369c0-2.456316-1.703184-4.5127-4.001052-5.055769v-.545143c0-.66311-.534679-1.199895-1.199193-1.199895-.664513 0-1.199193.536785-1.199193 1.199895v.545143c-2.2978683.543069-4.0010527 2.600122-4.0010527 5.055769v4.399615l-1.5998596 1.598456v.799929h13.6002103v-.799929l-1.59986-1.598456zm-5.200245 9.199193c.112384 0 .215677-.007.321076-.03213.517932-.103293.951392-.463479 1.150321-.945108.08026-.18987.129133-.398562.129133-.62333h-3.201092c0 .880222.720371 1.600561 1.600562 1.600561z" fill="#555"/></svg>