<svg fill="none" height="20" viewBox="0 0 20 20" width="20" xmlns="http://www.w3.org/2000/svg"><path d="m9.04893 2.92707c.29935-.92131 1.60277-.92131 1.90207 0l1.0696 3.29179c.1339.41203.5178.69099.9511.69099h3.4612c.9687 0 1.3715 1.23961.5878 1.80901l-2.8002 2.03444c-.3505.2546-.4972.706-.3633 1.118l1.0696 3.2918c.2993.9213-.7551 1.6875-1.5389 1.1181l-2.8001-2.0345c-.3505-.2546-.82511-.2546-1.1756 0l-2.80017 2.0345c-.78371.5694-1.83819-.1968-1.53884-1.1181l1.06957-3.2918c.13387-.412-.01279-.8634-.36327-1.118l-2.80017-2.03444c-.78372-.5694-.38094-1.80901.58778-1.80901h3.4612c.43323 0 .81718-.27896.95106-.69099z" fill="#4b5563"/></svg>